<?xml version="1.0" standalone="no"?>
<!DOCTYPE svg PUBLIC "-//W3C//DTD SVG 20010904//EN"
 "http://www.w3.org/TR/2001/REC-SVG-20010904/DTD/svg10.dtd">
<svg version="1.0" xmlns="http://www.w3.org/2000/svg"
 width="92.000000pt" height="123.000000pt" viewBox="0 0 92.000000 123.000000"
 preserveAspectRatio="xMidYMid meet">
<metadata>
Created by potrace 1.16, written by Peter Selinger 2001-2019
</metadata>
<g transform="translate(0.000000,123.000000) scale(0.100000,-0.100000)"
fill="#000000" stroke="none">
<path d="M290 856 l0 -286 -85 0 -85 0 0 -60 0 -60 85 0 85 0 0 -55 0 -55 -85
0 -85 0 0 -60 0 -60 85 0 85 0 0 -55 0 -55 90 0 90 0 0 55 0 55 115 0 115 0 0
60 0 60 -115 0 -115 0 0 55 0 55 115 0 115 0 0 60 0 60 -115 0 -115 0 0 49 0
48 83 5 c183 12 272 95 271 254 -1 89 -31 140 -109 179 -59 29 -63 30 -242 34
l-183 3 0 -286z m329 128 c27 -22 31 -32 31 -74 0 -76 -29 -103 -114 -108
l-66 -4 0 106 0 106 59 0 c49 0 65 -4 90 -26z"/>
</g>
</svg>
